:FULLY-SPECIFIED
:FORCE-ALL-JOINTS-BE-3DOF
:DEGREES
68
root 5.9282 16.7621 -28.0876 10.8521 2.82513 -3.6717
lfemur -33.691 13.8594 -17.7491
ltibia 50.7688 -0 0
lfoot -21.8595 -10.989 0.0434023
ltoes 32.8509 -0 0
rfemur -16.9077 -0.903542 21.7003
rtibia 30.3222 -0 0
rfoot -27.3679 -17.4931 -0.00260691
rtoes -7.69912 0 0
lowerback -3.73971 2.43159 3.19714
upperback -1.42581 3.13227 -0.232696
thorax 0.811281 1.56179 -1.8903
lowerneck -9.9237 -2.44082 2.15611
upperneck -5.3599 -3.40595 2.09868
head -0.0316991 -1.71559 0.193466
lclavicle 2.0821e-14 7.50433e-15 1.46414e-31
lhumerus -40.6394 -12.7055 94.1648
lradius 43.9558 -0 0
lwrist 7.7916 0 0
lhand -11.0818 2.41196 0.000581412
lfingers 7.12502 -0 0
lthumb 14.9415 31.8519 0.000306213
rclavicle 2.0821e-14 7.50433e-15 1.46414e-31
rhumerus -39.5466 1.16769 -91.7407
rradius 42.4836 -0 0
rwrist 7.23673 0 0
rhand -24.7378 -21.8969 0.00369087
rfingers 7.12502 -0 0
rthumb 1.76473 -51.8679 0.00363875
69
root 5.95171 16.7585 -28.0541 10.814 2.91163 -3.81018
lfemur -33.8711 13.5958 -17.3391
ltibia 50.4957 -0 0
lfoot -21.6938 -10.1856 0.0618968
ltoes 32.1695 -0 0
rfemur -16.6431 -1.10977 21.7794
rtibia 30.1435 -0 0
rfoot -27.4411 -17.3835 -0.00371683
rtoes -7.72149 0 0
lowerback -3.69667 2.50366 3.20488
upperback -1.45276 3.22995 -0.182601
thorax 0.761814 1.60955 -1.84269
lowerneck -9.94466 -2.50965 2.21568
upperneck -5.34482 -3.50426 2.06252
head -0.0261235 -1.76542 0.1695
lclavicle 1.98778e-14 7.98192e-15 2.08747e-31
lhumerus -40.7744 -12.4616 94.0291
lradius 44.0135 -0 0
lwrist 7.89014 0 0
lhand -10.9787 2.42929 0.000828949
lfingers 7.12502 -0 0
lthumb 15.0409 31.8614 0.000436584
rclavicle 1.98778e-14 7.98192e-15 2.08747e-31
rhumerus -39.4474 1.26433 -91.5706
rradius 42.6101 -0 0
rwrist 7.22166 0 0
rhand -24.6029 -21.8127 0.00526233
rfingers 7.12502 -0 0
rthumb 1.89503 -51.782 0.00518803
70
root 5.97871 16.7543 -28.0156 10.77 3.01084 -3.9693
lfemur -34.0801 13.2947 -16.8678
ltibia 50.182 -0 0
lfoot -21.5033 -9.26297 0.080267
ltoes 31.3872 -0 0
rfemur -16.3395 -1.34704 21.8691
rtibia 29.9383 -0 0
rfoot -27.5251 -17.2576 -0.00481871
rtoes -7.74717 0 0
lowerback -3.64724 2.5864 3.21383
upperback -1.4836 3.34214 -0.125127
thorax 0.705057 1.66444 -1.78807
lowerneck -9.96882 -2.58866 2.28411
upperneck -5.32743 -3.61714 2.02095
head -0.0196951 -1.82264 0.141972
lclavicle 1.87946e-14 8.53035e-15 2.70628e-31
lhumerus -40.9301 -12.1819 93.8728
lradius 44.0797 -0 0
lwrist 8.00329 0 0
lhand -10.8602 2.4492 0.00107469
lfingers 7.12502 -0 0
lthumb 15.155 31.8723 0.000566009
rclavicle 1.87946e-14 8.53035e-15 2.70628e-31
rhumerus -39.3331 1.37495 -91.3752
rradius 42.7553 -0 0
rwrist 7.20435 0 0
rhand -24.448 -21.7161 0.00682244
rfingers 7.12502 -0 0
rthumb 2.04466 -51.6834 0.0067261
71
root 6.00856 16.7497 -27.9731 10.7211 3.1204 -4.14533
lfemur -34.3139 12.9637 -16.3461
ltibia 49.8352 -0 0
lfoot -21.2924 -8.24262 0.0970062
ltoes 30.5222 -0 0
rfemur -16.0043 -1.60991 21.9668
rtibia 29.7114 -0 0
rfoot -27.618 -17.1185 -0.00582216
rtoes -7.77557 0 0
lowerback -3.59256 2.67788 3.22381
upperback -1.51758 3.46623 -0.0616415
thorax 0.642361 1.7252 -1.72774
lowerneck -9.99564 -2.67599 2.35982
upperneck -5.30811 -3.74194 1.97495
head -0.0125551 -1.8859 0.111526
lclavicle 1.7597e-14 9.13672e-15 3.26979e-31
lhumerus -41.103 -11.873 93.6992
lradius 44.1529 -0 0
lwrist 8.12839 0 0
lhand -10.7291 2.47121 0.00129848
lfingers 7.12502 -0 0
lthumb 15.2812 31.8843 0.00068387
rclavicle 1.7597e-14 9.13672e-15 3.26979e-31
rhumerus -39.2062 1.4968 -91.1588
rradius 42.9159 -0 0
rwrist 7.18522 0 0
rhand -24.2766 -21.6092 0.0082432
rfingers 7.12502 -0 0
rthumb 2.21011 -51.5743 0.00812679
72
root 6.04062 16.7448 -27.9274 10.6681 3.23793 -4.33458
lfemur -34.5681 12.6103 -15.7846
ltibia 49.4626 -0 0
lfoot -21.0654 -7.14647 0.110799
ltoes 29.5928 -0 0
rfemur -15.6446 -1.89298 22.0701
rtibia 29.4677 -0 0
rfoot -27.7179 -16.9689 -0.00664873
rtoes -7.80608 0 0
lowerback -3.53379 2.77615 3.23464
upperback -1.55393 3.59958 0.00649117
thorax 0.575074 1.79055 -1.663
lowerneck -10.0246 -2.76977 2.44121
upperneck -5.28723 -3.87599 1.92547
head -0.00484651 -1.95386 0.0788066
lclavicle 1.63104e-14 9.78817e-15 3.73396e-31
lhumerus -41.2895 -11.5418 93.5119
lradius 44.2316 -0 0
lwrist 8.2628 0 0
lhand -10.5884 2.49486 0.00148282
lfingers 7.12502 -0 0
lthumb 15.4168 31.8973 0.000780956
rclavicle 1.63104e-14 9.78817e-15 3.73396e-31
rhumerus -39.0694 1.62719 -90.9259
rradius 43.0885 -0 0
rwrist 7.16466 0 0
rhand -24.0926 -21.4944 0.00941353
rfingers 7.12502 -0 0
rthumb 2.38786 -51.4571 0.00928059
